<svg xmlns="http://www.w3.org/2000/svg" viewBox="0 0 40 48" fill="none">
  <!-- Shield -->
  <path d="M20 2L4 10v14c0 11.2 6.8 18.4 16 22 9.2-3.6 16-10.8 16-22V10L20 2z" fill="#7C3AED"/>
  <path d="M20 4L6 11.2v12.8c0 10 6 16.6 14 19.8 8-3.2 14-9.8 14-19.8V11.2L20 4z" fill="#030014"/>
  <path d="M20 6L8 12.4v11.6c0 8.8 5.2 15 12 18 6.8-3 12-9.2 12-18V12.4L20 6z" fill="#7C3AED" opacity="0.15"/>
  <!-- Eye white -->
  <ellipse cx="20" cy="23" rx="9" ry="6" fill="rgba(255,255,255,0.9)"/>
  <!-- Iris -->
  <circle cx="20" cy="23" r="4.5" fill="#06B6D4"/>
  <!-- Pupil -->
  <circle cx="20" cy="23" r="2" fill="white"/>
  <!-- Eye highlight -->
  <circle cx="21.5" cy="21.5" r="1" fill="white" opacity="0.8"/>
  <!-- Upper eyelid shadow -->
  <path d="M11 23c0-3.3 4-6 9-6s9 2.7 9 6" fill="none" stroke="#7C3AED" stroke-width="1.5" opacity="0.5"/>
  <!-- Lower eyelid shadow -->
  <path d="M11 23c0 3.3 4 6 9 6s9-2.7 9-6" fill="none" stroke="#7C3AED" stroke-width="1.5" opacity="0.5"/>
</svg>
